<svg xmlns="http://www.w3.org/2000/svg" xmlns:xlink="http://www.w3.org/1999/xlink" version="1.1" x="0px" y="0px" viewBox="0 0 100 125" enable-background="new 0 0 100 100" xml:space="preserve"><g><path d="M95.175,28.439H65.101h-0.063H34.963H4.825C3.817,28.439,3,29.256,3,30.264v39.472c0,1.008,0.817,1.825,1.825,1.825h10.199   L16.187,91.5h2.917l1.163-19.939h14.695h30.075h0.063h14.632L80.896,91.5h2.917l1.163-19.939h10.199   c1.008,0,1.825-0.817,1.825-1.825V30.264C97,29.256,96.183,28.439,95.175,28.439z M33.137,67.911H6.65V32.089h26.487V67.911z    M63.212,67.911H36.788V32.089h26.424V67.911z M93.35,67.911H66.926V51.825H93.35V67.911z M93.35,48.175H66.926V32.089H93.35   V48.175z"/><path d="M50.448,28.102h19.179c0.466,0,0.843-0.537,0.843-1.2v-0.259c0-0.662-0.378-1.2-0.843-1.2H50.448   c-0.466,0-0.843,0.537-0.843,1.2v0.259C49.605,27.565,49.982,28.102,50.448,28.102z"/><path d="M51.562,23.61v0.259c0,0.663,0.377,1.2,0.843,1.2h19.179c0.466,0,0.843-0.537,0.843-1.2V23.61c0-0.662-0.377-1.2-0.843-1.2   H52.405C51.94,22.411,51.562,22.948,51.562,23.61z"/><path d="M50.448,22.037h19.179c0.466,0,0.843-0.537,0.843-1.2v-0.259c0-0.663-0.378-1.2-0.843-1.2H50.448   c-0.466,0-0.843,0.537-0.843,1.2v0.259C49.605,21.5,49.982,22.037,50.448,22.037z"/><path d="M10.267,11.806c-0.343-0.974-0.63-1.583-1.234-2.088C8.249,9.062,7.337,8.92,6.829,8.886   c0.628,0.573,1.685,1.689,2.404,3.419c0.16,0.385,0.28,0.758,0.38,1.12h3.05h0.074h3.05c0.1-0.363,0.22-0.735,0.38-1.12   c0.719-1.73,1.777-2.846,2.404-3.419c-0.508,0.034-1.42,0.176-2.204,0.832c-0.604,0.505-0.89,1.114-1.234,2.088   c-0.095,0.27-0.195,0.57-0.296,0.896c-0.01-0.043-0.02-0.089-0.031-0.132c0.113-0.525,0.272-1.082,0.514-1.664   c0.719-1.73,1.777-2.846,2.404-3.419c-0.508,0.034-1.42,0.176-2.204,0.832c-0.23,0.193-0.406,0.409-0.564,0.647   c-0.363,0.07-0.781,0.211-1.2,0.459c-0.098-0.2-0.206-0.384-0.325-0.549c0.459-0.618,0.912-1.085,1.244-1.389   c-0.46,0.031-1.248,0.171-1.976,0.68c-0.727-0.509-1.515-0.649-1.976-0.68c0.332,0.303,0.785,0.77,1.244,1.389   c-0.119,0.166-0.227,0.349-0.325,0.549c-0.419-0.248-0.837-0.389-1.2-0.459c-0.159-0.237-0.334-0.454-0.564-0.647   C9.095,7.663,8.183,7.521,7.675,7.487c0.628,0.573,1.685,1.689,2.404,3.419c0.242,0.582,0.402,1.14,0.514,1.664   c-0.011,0.042-0.02,0.089-0.031,0.132C10.462,12.376,10.362,12.076,10.267,11.806z M14.403,10.103   c-0.038,0.102-0.076,0.193-0.115,0.304c-0.02,0.057-0.042,0.13-0.063,0.19c-0.018-0.052-0.036-0.111-0.054-0.164   C14.25,10.323,14.325,10.204,14.403,10.103z M13.416,11.707c0.092,0.296,0.168,0.585,0.227,0.863   c-0.01,0.042-0.02,0.089-0.031,0.132c-0.094-0.305-0.186-0.58-0.276-0.836C13.363,11.812,13.389,11.76,13.416,11.707z M12.7,10.048   c0.039,0.072,0.075,0.152,0.113,0.227c-0.039,0.054-0.077,0.11-0.113,0.168c-0.036-0.057-0.074-0.113-0.113-0.168   C12.625,10.2,12.661,10.12,12.7,10.048z M11.985,11.707c0.027,0.053,0.053,0.104,0.079,0.159c-0.09,0.256-0.182,0.532-0.276,0.836   c-0.01-0.043-0.02-0.089-0.031-0.132C11.817,12.292,11.893,12.003,11.985,11.707z M11.23,10.433   c-0.018,0.053-0.036,0.112-0.054,0.164c-0.021-0.06-0.042-0.133-0.063-0.19c-0.039-0.111-0.077-0.202-0.115-0.304   C11.075,10.203,11.151,10.323,11.23,10.433z"/><path d="M7.453,22.955c0,2.898,2.349,5.247,5.247,5.247c2.898,0,5.247-2.349,5.247-5.247c0-1.919-1.042-3.581-2.579-4.495   l1.909-3.306c0.404-0.7-0.101-1.576-0.91-1.576h-2.562H11.25H9.034c-0.809,0-1.314,0.875-0.91,1.576l1.909,3.306   C8.495,19.375,7.453,21.036,7.453,22.955z"/><path d="M91.149,24.934H78.223c-0.288,0-0.521,0.233-0.521,0.521v2.088c0,0.288,0.233,0.521,0.521,0.521h12.926   c0.288,0,0.521-0.233,0.521-0.521v-2.088C91.67,25.167,91.437,24.934,91.149,24.934z M90.628,27.022H78.744v-1.045h11.884V27.022z"/><path d="M76.979,24.792h12.926c0.288,0,0.521-0.233,0.521-0.521v-2.087c0-0.288-0.233-0.521-0.521-0.521H76.979   c-0.288,0-0.521,0.233-0.521,0.521v2.087C76.458,24.559,76.691,24.792,76.979,24.792z M77.5,22.705h11.884v1.045H77.5V22.705z"/><path d="M78.223,21.521h12.926c0.288,0,0.521-0.233,0.521-0.521v-2.087c0-0.288-0.233-0.521-0.521-0.521H78.223   c-0.288,0-0.521,0.233-0.521,0.521v2.087C77.702,21.287,77.935,21.521,78.223,21.521z M78.744,19.433h11.884v1.045H78.744V19.433z"/><path d="M31.137,34.089H8.65v31.821h22.487V34.089z M28.637,51.5c-0.828,0-1.5-0.672-1.5-1.5s0.672-1.5,1.5-1.5s1.5,0.672,1.5,1.5   S29.466,51.5,28.637,51.5z"/><path d="M91.35,34.089H68.926v12.085H91.35V34.089z M80.138,41.632c-0.828,0-1.5-0.672-1.5-1.5s0.672-1.5,1.5-1.5   s1.5,0.672,1.5,1.5S80.966,41.632,80.138,41.632z"/><path d="M91.35,53.825H68.926v12.085H91.35V53.825z M80.138,61.368c-0.828,0-1.5-0.672-1.5-1.5s0.672-1.5,1.5-1.5   s1.5,0.672,1.5,1.5S80.966,61.368,80.138,61.368z"/><path d="M61.212,34.089H38.788v31.821h22.425V34.089z M41.288,51.5c-0.828,0-1.5-0.672-1.5-1.5s0.672-1.5,1.5-1.5   s1.5,0.672,1.5,1.5S42.116,51.5,41.288,51.5z"/></g></svg>