<svg xmlns="http://www.w3.org/2000/svg" xmlns:xlink="http://www.w3.org/1999/xlink" version="1.1" x="0px" y="0px" viewBox="0 0 512 640" style="enable-background:new 0 0 512 512;" xml:space="preserve"><g><path d="M284.1,124.7C284.1,124.6,284.1,124.6,284.1,124.7c-0.2-2.1-0.4-4.2-0.6-6.2c0,0,0,0,0,0c-0.3-2-0.6-4.1-0.9-6.1   c0,0,0,0,0,0c-0.2-1-0.4-2-0.6-3c0,0,0,0,0,0c-0.4-2-0.8-4-1.3-6c0,0,0,0,0,0c-0.5-2-1-3.9-1.6-5.9c-0.6-1.9-1.2-3.9-1.9-5.7   c0,0,0,0,0,0c-0.7-1.9-1.4-3.8-2.1-5.6c0,0,0,0,0,0c-0.5-1.1-0.9-2.2-1.4-3.3c0,0,0,0,0,0c-0.4-0.9-0.8-1.7-1.2-2.6c0,0,0,0,0,0   c0,0,0,0,0,0c-0.5-1-0.9-1.9-1.4-2.9c0,0,0,0,0,0c0,0,0,0,0,0c0,0,0,0,0,0s0,0,0,0c-1.4-2.8-2.9-5.7-4.6-8.4c0,0,0,0,0,0   c-1.4-2.4-2.9-4.8-4.5-7c0,0,0,0,0,0c-2-3-4.2-5.8-6.4-8.6c0,0,0,0,0,0c-0.8-1-1.7-2.1-2.6-3.1c0,0,0,0,0,0   c-1.2-1.4-2.5-2.8-3.8-4.1c0,0,0,0,0,0c0,0,0,0,0,0l-0.1-0.1c0,0,0,0,0,0c0,0,0,0,0,0c-4.4-4.6-9.1-8.8-14.1-12.7c0,0,0,0,0,0   c-1.7-1.3-3.4-2.6-5.1-3.8c0,0,0,0,0,0c-0.9-0.6-1.7-1.2-2.6-1.8c-1.8-1.2-3.6-2.3-5.4-3.4c-1.8-1.1-3.7-2.1-5.6-3.1c0,0,0,0,0,0   c0,0,0,0,0,0c-1.9-1-3.8-2-5.7-2.8c0,0,0,0,0,0c-1-0.5-1.9-0.9-2.9-1.3c0,0,0,0,0,0c-2.9-1.3-6-2.5-9-3.5c0,0,0,0,0,0   c-2-0.7-4.1-1.4-6.2-2c0,0,0,0,0,0c-4.2-1.2-8.4-2.2-12.7-3c0,0,0,0,0,0c-15.3-2.8-31.3-2.8-46.6,0c0,0,0,0,0,0   c-4.3,0.8-8.5,1.8-12.7,3c0,0,0,0,0,0c-2.1,0.6-4.1,1.3-6.2,2c0,0,0,0,0,0c-3,1.1-6,2.2-9,3.5c0,0,0,0,0,0c-1,0.4-1.9,0.9-2.9,1.3   c0,0,0,0,0,0c-1.9,0.9-3.8,1.9-5.7,2.8c0,0,0,0,0,0c0,0,0,0,0,0c-1.9,1-3.7,2-5.6,3.1c-1.8,1.1-3.6,2.2-5.4,3.4   c-0.9,0.6-1.8,1.2-2.6,1.8c-1.7,1.2-3.4,2.5-5.1,3.8c0,0,0,0,0,0c-5,3.9-9.7,8.1-14,12.7c0,0,0,0,0,0L63.9,46c0,0,0,0,0,0   c0,0,0,0,0,0c-1.3,1.3-2.5,2.7-3.8,4.1c0,0,0,0,0,0c-0.9,1-1.7,2-2.6,3.1c0,0,0,0,0,0c-2.2,2.7-4.4,5.6-6.4,8.6c0,0,0,0,0,0   c-1.6,2.3-3.1,4.6-4.5,7c0,0,0,0,0,0c-1.6,2.7-3.2,5.5-4.6,8.4c0,0,0,0,0,0s0,0,0,0c0,0,0,0,0,0c0,0,0,0,0,0   c-0.5,1-0.9,1.9-1.4,2.9c0,0,0,0,0,0c-0.4,0.8-0.8,1.7-1.2,2.6c0,0,0,0,0,0c-0.5,1.1-0.9,2.2-1.4,3.3c0,0,0,0,0,0   c-0.8,1.9-1.5,3.7-2.1,5.6c0,0,0,0,0,0c-0.7,1.9-1.3,3.8-1.9,5.7c-0.6,1.9-1.1,3.9-1.6,5.9c0,0,0,0,0,0c-0.5,2-0.9,4-1.3,6   c0,0,0,0,0,0c-0.2,1-0.4,2-0.6,3c0,0,0,0,0,0c0,0,0,0,0,0c0,0,0,0,0,0c0,0,0,0,0,0c-0.3,2-0.7,4.1-0.9,6.1c0,0,0,0,0,0   c-0.3,2.1-0.5,4.2-0.6,6.2c0,0,0,0,0,0c-0.2,3.1-0.3,6.3-0.3,9.5c0,53.9,33.7,101.8,84.1,120.1c19.5,42.8,62.1,70.3,109.4,70.3   c4.4,0,8,3.6,8,8v26.5h-79.1c-25.7,0-46.6,20.9-46.6,46.6V478c0,15.3,12.5,27.8,27.8,27.8h104c5.7,0,11-2.8,14.2-7.4   c3.3-4.6,4-10.6,2.1-15.9l-9.2-25.3c0,0,0,0,0,0c-1-2.8-0.6-5.9,1.1-8.3c1.7-2.5,4.4-3.9,7.5-3.9h83.7c3,0,5.7,1.4,7.5,3.9   c1.7,2.5,2.1,5.5,1.1,8.3l-9.2,25.3c-1.9,5.3-1.1,11.3,2.1,15.9c3.3,4.6,8.6,7.4,14.2,7.4h104c15.3,0,27.8-12.5,27.8-27.8v-72.2   c0-25.7-20.9-46.6-46.6-46.6h-79.1v-41.5c0-2-0.1-4.1-0.2-6.1c18.2-0.7,34-6.1,47.1-16c16.2-12.2,27.4-29.3,33.3-50.7   c26.7-8.4,45-33,45-61.3c0-16-5.9-31.4-16.7-43.3c0,0,0,0,0,0c-2.1-2.3-4.3-4.4-6.7-6.4c0,0,0,0,0,0c-0.7-0.6-1.4-1.1-2.1-1.7   c0,0,0,0,0,0c-1.4-1.1-2.9-2.1-4.4-3.1c0,0,0,0,0,0c-0.8-0.5-1.5-0.9-2.3-1.4c0,0,0,0,0,0c-4.8-2.7-9.9-4.9-15.2-6.3c0,0,0,0,0,0   c-10.9-3-22.8-3-33.7,0c0,0,0,0,0,0c-5.3,1.4-10.4,3.6-15.2,6.3c0,0,0,0,0,0c-0.8,0.5-1.6,0.9-2.3,1.4c0,0,0,0,0,0   c-1.5,1-3,2-4.4,3.1c0,0,0,0,0,0c-0.7,0.5-1.4,1.1-2.1,1.7c0,0,0,0,0,0c-2.4,2-4.6,4.1-6.7,6.4C359.9,152,354,167.3,354,183.4   c0,24.5,14.1,46.8,35.6,57.6l-0.3,0.6c-1.3,2.4-2.5,4.7-3.8,6.8c-0.1,0.2-0.4,0.6-0.7,1c-0.3,0.4-0.6,0.8-0.8,1.2   c-0.3,0.4-0.7,0.8-1.1,1.3c-0.5,0.5-0.9,1-1,1.2c-0.9,1-1.9,1.9-2.8,2.8c-0.1,0.1-0.4,0.4-0.7,0.6c-0.5,0.4-0.9,0.7-1.2,1   c-1.8,1.3-3.9,2.4-6.1,3.7c-0.2,0.1-0.4,0.2-0.6,0.3c-0.2,0.1-0.3,0.1-0.5,0.2c-1.6,0.6-3,1-4.4,1.4c-1.6,0.4-3.3,0.8-5.2,1.2   c-0.3,0.1-0.7,0.1-1,0.2l-0.1,0c-0.1,0-0.3,0-0.5,0c-3.4,0.3-6.8,0.4-10,0.3c-1.1,0-2.3-0.1-3.5-0.2   c-15.8-32.2-44.8-55.4-79.4-63.8c12.3-20,18.7-42.9,18.7-66.6C284.5,131,284.4,127.8,284.1,124.7z M177.4,22.1   C177.4,22.1,177.4,22.1,177.4,22.1c3.8,0.7,7.6,1.6,11.3,2.7c0,0,0,0,0,0c1.8,0.5,3.7,1.1,5.5,1.8c0,0,0,0,0,0c2.7,0.9,5.4,2,8,3.1   c0,0,0,0,0,0c0.9,0.4,1.7,0.8,2.6,1.2c0,0,0,0,0,0c1.7,0.8,3.4,1.7,5.1,2.5c0,0,0,0,0,0c1.7,0.9,3.3,1.8,4.9,2.8c1.6,1,3.2,2,4.8,3   c0.8,0.5,1.6,1.1,2.3,1.6c0,0,0,0,0,0c0,0,0,0,0,0c1.5,1.1,3.1,2.2,4.5,3.4c0,0,0,0,0,0c4.4,3.4,8.6,7.3,12.5,11.3c0,0,0,0,0,0   c0,0,0,0,0,0l0.1,0.1c0,0,0,0,0,0c0,0,0,0,0,0c1.1,1.2,2.2,2.4,3.3,3.7c0,0,0,0,0,0c0.8,0.9,1.5,1.8,2.3,2.7c0,0,0,0,0,0   c2,2.4,3.9,5,5.7,7.7c0,0,0,0,0,0c1.4,2,2.7,4.1,4,6.3c0,0,0,0,0,0c0,0,0,0,0,0c1.4,2.4,2.8,4.9,4.1,7.5c0,0,0,0,0,0c0,0,0,0,0,0   c0.4,0.9,0.8,1.7,1.2,2.6c0,0,0,0,0,0c0.4,0.8,0.7,1.5,1,2.3c0,0,0,0,0,0c0,0,0,0,0,0c0.4,1,0.8,2,1.2,2.9c0,0,0,0,0,0   c0.7,1.6,1.3,3.3,1.9,5c0,0,0,0,0,0c0.6,1.7,1.2,3.4,1.7,5.1c0.5,1.7,1,3.5,1.4,5.2c0,0,0,0,0,0c0.4,1.8,0.8,3.5,1.2,5.3   c0,0,0,0,0,0c0.2,0.9,0.3,1.8,0.5,2.7c0,0,0,0,0,0c0.3,1.8,0.6,3.6,0.8,5.5c0,0,0,0,0,0c0.2,1.8,0.4,3.7,0.5,5.5c0,0,0,0,0,0   c0,0.5,0,1,0.1,1.4h-48H109H43c0-0.5,0-1,0.1-1.4c0,0,0,0,0,0c0.1-1.8,0.3-3.7,0.5-5.5c0,0,0,0,0,0c0.2-1.8,0.5-3.7,0.8-5.5   c0,0,0,0,0,0c0,0,0,0,0,0c0.2-0.9,0.3-1.8,0.5-2.7c0,0,0,0,0,0c0.3-1.8,0.7-3.6,1.2-5.3c0,0,0,0,0,0c0.4-1.8,0.9-3.5,1.4-5.2   c0.5-1.7,1.1-3.4,1.7-5.1c0,0,0,0,0,0c0.6-1.7,1.2-3.4,1.9-5c0,0,0,0,0,0c0.4-1,0.8-2,1.2-2.9c0,0,0,0,0,0c0.3-0.8,0.7-1.5,1-2.3   c0,0,0,0,0,0c0.4-0.9,0.8-1.7,1.2-2.6c0,0,0,0,0,0c0,0,0,0,0,0c1.3-2.5,2.6-5,4.1-7.5c0,0,0,0,0,0c1.3-2.1,2.6-4.2,4-6.3   c0,0,0,0,0,0c1.8-2.6,3.7-5.2,5.7-7.7c0,0,0,0,0,0c0.8-0.9,1.5-1.8,2.3-2.7c0,0,0,0,0,0c1.1-1.3,2.2-2.5,3.3-3.7c0,0,0,0,0,0   l0.2-0.2c0,0,0,0,0,0c3.9-4.1,8.1-7.9,12.5-11.3c0,0,0,0,0,0c1.5-1.2,3-2.3,4.5-3.4c0.8-0.5,1.5-1.1,2.3-1.6c1.6-1,3.2-2.1,4.8-3   c1.6-1,3.3-1.9,4.9-2.8c0,0,0,0,0,0c1.7-0.9,3.4-1.7,5.1-2.5c0,0,0,0,0,0c0.9-0.4,1.7-0.8,2.6-1.2c0,0,0,0,0,0   c2.6-1.1,5.3-2.2,8-3.1c0,0,0,0,0,0c1.8-0.6,3.7-1.2,5.5-1.8c0,0,0,0,0,0c3.7-1.1,7.5-2,11.3-2.7c0,0,0,0,0,0   C149.5,19.6,163.8,19.6,177.4,22.1z M43,141.1h45.1c3.5,34.8,32.8,61.9,68.5,61.9s65-27.1,68.5-61.9h45.1   c-1.3,21.9-8.8,42.6-21.8,60.3C227,230.6,192.7,248,156.6,248c-12.5,0-24.7-2-36.4-5.9C76.1,227.2,45.8,187.1,43,141.1z    M469.2,405.7V478c0,7.6-6.2,13.8-13.8,13.8h-104c-1.5,0-2.4-0.9-2.8-1.4c-0.4-0.5-0.9-1.7-0.4-3.1l9.1-25.2l16.1-39   c1.5-3.6-0.2-7.7-3.8-9.1c-3.6-1.5-7.7,0.2-9.1,3.8l-8.3,20.2c-4.3-4.4-10.2-6.9-16.5-6.9H252c-6.1,0-11.9,2.4-16.2,6.6l-7.6-19.7   c-1.4-3.6-5.5-5.4-9.1-4c-3.6,1.4-5.4,5.5-4,9.1l15.1,39.1l9.2,25.3c0.5,1.4,0,2.6-0.4,3.1c-0.4,0.5-1.2,1.4-2.8,1.4h-104   c-7.6,0-13.8-6.2-13.8-13.8v-72.2c0-18,14.6-32.6,32.6-32.6h86.1h113.3h86.1C454.6,373.1,469.2,387.7,469.2,405.7z M431.5,134.8   C431.5,134.8,431.5,134.8,431.5,134.8c4.1,1.1,8.1,2.8,11.9,4.9c0,0,0,0,0,0c0.6,0.4,1.2,0.7,1.8,1.1c0,0,0,0,0,0   c1.2,0.8,2.4,1.6,3.5,2.4c0,0,0,0,0,0c0.6,0.4,1.1,0.9,1.7,1.3c0,0,0,0,0,0c1.9,1.5,3.6,3.2,5.2,5c0,0,0,0,0,0   c6.8,7.5,11.2,16.9,12.6,26.8H451h-20.2h-25.4h-19.8h-17.2c1.4-10,5.7-19.3,12.6-26.8c1.6-1.8,3.4-3.5,5.2-5c0,0,0,0,0,0   c0.5-0.4,1.1-0.9,1.7-1.3c0,0,0,0,0,0c1.1-0.8,2.3-1.7,3.5-2.4c0,0,0,0,0,0c0.6-0.4,1.2-0.7,1.8-1.1c0,0,0,0,0,0   c3.7-2.1,7.7-3.8,11.9-4.9c0,0,0,0,0,0C413.7,132.5,423,132.5,431.5,134.8z M368.5,190.4h17.1h0.8c3.2,14.7,16.3,25.7,31.9,25.7   s28.7-11,31.9-25.7h0.8h17.2c-2.8,20.2-17.6,37-37.9,41.9c0,0,0,0,0,0c-3.9,1-7.9,1.4-11.9,1.4c-6,0-11.8-1-17.4-3.1c0,0,0,0,0,0   C383.5,224.2,371.1,208.5,368.5,190.4z M394.7,259.5C394.7,259.5,394.7,259.5,394.7,259.5C394.7,259.5,394.7,259.5,394.7,259.5   L394.7,259.5z M351.3,278.8c2.4,0,4.9-0.1,7.4-0.3c0.2,0,0.3,0,0.5,0c0.3,0,0.6,0,1-0.1c0.2,0,0.4-0.1,0.5-0.1c0.1,0,0.2,0,0.3,0   l0.3,0c0,0,0,0,0,0l0.3-0.1c0.5-0.1,1-0.2,1.4-0.2c2.2-0.4,4.3-0.9,6.3-1.5c1.8-0.5,3.6-1.1,5-1.6c0.6-0.1,1.2-0.3,1.8-0.5   c0.6-0.3,1.2-0.6,1.7-1c0,0,0,0,0,0c2.6-1.4,5-2.8,7.5-4.5c0,0,0.1-0.1,0.1-0.1c0,0,0.1-0.1,0.1-0.1l0,0l0.2-0.2   c0.2-0.2,0.5-0.3,0.7-0.5c0.1,0,0.1-0.1,0.2-0.1c0,0,0,0,0,0c0,0,0,0,0,0c0.5-0.3,0.8-0.7,1.2-1.2c0.3-0.2,0.5-0.4,0.6-0.6   c1.2-1.1,2.4-2.3,3.6-3.6c0.2-0.2,0.8-0.9,1.4-1.6c0.3-0.3,0.5-0.6,0.7-0.9c0.3-0.3,0.6-0.6,0.9-1c0.3-0.3,0.5-0.7,0.7-1   c0.2-0.2,0.3-0.5,0.5-0.7c0.4-0.6,0.8-1.2,1-1.4c1.8-2.7,3.2-5.4,4.5-8l0.3-0.6c0.4-0.5,0.7-1,1-1.6c0,0,0,0,0,0   c5,1.2,10.1,1.9,15.3,1.9c1.3,0,2.5,0,3.8-0.1c-5.4,15.3-14.2,27.6-26.1,36.7c-11.2,8.4-24.4,12.8-40.2,13.2   c-1.1-6.4-2.7-12.6-4.7-18.7C351.1,278.8,351.2,278.8,351.3,278.8z M334.1,273.9c4.5,10,7.4,20.5,8.7,31.4c0.5,4,0.7,8.2,0.7,12.3   v41.5h-99.3v-26.5c0-12.1-9.9-22-22-22c-37.5,0-71.8-19.6-90.8-51.1c8.3,1.7,16.7,2.5,25.2,2.5c39.1,0,76.3-18.2,100.5-48.8   C291.1,219.6,319.7,242.1,334.1,273.9z"/></g></svg>