<svg xmlns="http://www.w3.org/2000/svg" xmlns:xlink="http://www.w3.org/1999/xlink" version="1.1" x="0px" y="0px" viewBox="0 0 96 120" enable-background="new 0 0 96 96" xml:space="preserve"><g><path d="M70.4603,40.9515h-9.0928v4.5015l-34.5786-7.0234c0,0.5586,0,36.8633,0,36.043H16.2088V38.1297h3.6265l2.1628-13.9624   h2.5134v-2c-0.1267,0-4.8238,0-4.6143,0l1.9742-4.8774h-8.166v-3.876h-2v3.876H3.1454l1.9735,4.8774c-0.1611,0-4.8624,0-4.6141,0v2   h2.5134L5.181,38.1297h3.6265v36.3428H2.9637V95.055c10.2472,0,98.419,0,91.5308,0V74.4725H70.4603   C70.4603,55.4115,70.4603,60.0186,70.4603,40.9515z M13.5082,36.1297V24.1673h2.4676l-0.9692,11.9624H13.5082z M11.5082,36.1297   h-1.4984L9.0406,24.1673h2.4676V36.1297z M19.974,24.1673l-1.8525,11.9624h-1.1087l0.9692-11.9624h1.1058H19.974z M6.1122,19.2898   h12.7925l-1.1646,2.8774H7.2767L6.1122,19.2898z M5.0423,24.1673h0.8857h1.1063l0.9692,11.9624H6.8949L5.0423,24.1673z    M68.4603,65.0472H64.494v-3.272h3.9663V65.0472z M68.4603,55.6214H64.494v-3.272h3.9663V55.6214z M28.7889,52.3494h3.9663v3.272   h-3.9663V52.3494z M28.7889,61.7752h3.9663v3.272h-3.9663V61.7752z M28.7889,71.2005h3.9663v3.272h-3.9663V71.2005z    M10.8075,38.6297h3.4014v35.8428h-3.4014V38.6297z M8.7298,93.055v-5.7041h1.834v5.7041H8.7298z M16.558,93.055v-5.7041h1.834   v5.7041H16.558z M24.3861,93.055v-5.7041h1.8345v5.7041H24.3861z M31.7814,93.055c1.2773-3.4532,3.556-6.3727,6.4421-8.4713v8.4713   H31.7814z M46.5707,93.055v-5.2817c0-1.3657,1.1108-2.4771,2.4766-2.4771s2.4771,1.1113,2.4771,2.4771v5.2817H46.5707z    M49.0472,83.2962c-2.4683,0-4.4766,2.0083-4.4766,4.4771v5.2817h-4.3472v-9.7401c2.6507-1.453,5.6685-2.2765,8.8237-2.2765   c2.9055,0,5.6924,0.7029,8.186,1.9469V93.055h-3.709v-5.2817C53.5243,85.3045,51.516,83.2962,49.0472,83.2962z M66.3132,93.055   h-7.0799v-8.9126C62.4206,86.2631,64.9434,89.3515,66.3132,93.055z M71.182,93.055v-5.7041h1.834v5.7041H71.182z M79.0101,93.055   v-5.7041h1.834v5.7041H79.0101z M86.8382,93.055v-5.7041h1.8345v5.7041H86.8382z M62.494,69.2005v7.272   c7.1078,0,22.8945,0,30.0005,0V93.055h-1.8218v-7.7041h-5.8345v7.7041h-1.9941v-7.7041h-5.834v7.7041H75.016v-7.7041h-5.834v7.7041   h-0.7627c-2.7272-8.2859-10.5754-14.0166-19.3721-14.0166c-8.7961,0-16.6445,5.7307-19.3721,14.0166h-1.4546v-7.7041h-5.8345   v7.7041H20.392v-7.7041h-5.834v7.7041h-1.9941v-7.7041h-5.834v7.7041H4.9637V76.4725c10.5725,0,19.2938,0,29.7915,0v-7.272h-5.9663   v-2.1533h5.9663v-7.272h-5.9663v-2.1538h5.9663v-7.272h-5.9663v-9.4727l34.5786,7.0234v-4.9487h5.0928v7.3979H62.494v7.272h5.9663   v2.1538H62.494v7.272h5.9663v2.1533H62.494z M68.4603,71.2005v3.272H64.494v-3.272H68.4603z"/><rect x="37.7689" y="51.3494" width="2" height="5.272"/><rect x="42.6967" y="51.3494" width="2" height="5.272"/><rect x="47.6244" y="51.3494" width="2" height="5.272"/><rect x="52.5521" y="51.3494" width="2" height="5.272"/><rect x="57.4803" y="51.3494" width="2" height="5.272"/><rect x="37.7689" y="60.7752" width="2" height="5.272"/><rect x="42.6967" y="60.7752" width="2" height="5.272"/><rect x="47.6244" y="60.7752" width="2" height="5.272"/><rect x="52.5521" y="60.7752" width="2" height="5.272"/><rect x="57.4803" y="60.7752" width="2" height="5.272"/><rect x="37.7689" y="70.2005" width="2" height="5.272"/><rect x="42.6967" y="70.2005" width="2" height="5.272"/><rect x="47.6244" y="70.2005" width="2" height="5.272"/><rect x="52.5521" y="70.2005" width="2" height="5.272"/><rect x="57.4803" y="70.2005" width="2" height="5.272"/><rect x="13.4754" y="79.3533" width="3" height="2"/><rect x="20.4754" y="79.3533" width="3" height="2"/><rect x="34.4755" y="79.3533" width="3" height="2"/><rect x="6.4754" y="79.3533" width="3" height="2"/><rect x="27.4755" y="79.3533" width="3" height="2"/><rect x="60.451" y="79.3533" width="3" height="2"/><rect x="67.451" y="79.3533" width="3" height="2"/><rect x="81.451" y="79.3533" width="3" height="2"/><rect x="74.451" y="79.3533" width="3" height="2"/><rect x="88.451" y="79.3533" width="3" height="2"/><path d="M68.6957,25.0506l6.9355-9.9897c11.6567-2.1885,16.8447-4.7109,16.3179-7.9282c-0.5186-3.1621-6.1035-3.1621-7.939-3.1621   c-2.9702,0-6.873,0.3613-11.604,1.0742l-7.7495-4.0996l-6.5835,1.0791l4.8477,4.8462c-4.4893,1.0513-9.521,2.4478-14.1377,3.9277   l-6.061-4.6206l-4.7974,0.7861l5.1553,8.9248c0.1,0.0732,0.6932,1.539,3.3682,1.5684l1.1079,0.0049   c5.7319,0,12.3228-0.3398,17.9604-0.918l-3.2026,9.5522L68.6957,25.0506z M66.847,14.388   c-5.8818,0.6724-13.0937,1.0737-19.291,1.0737l-1.0884-0.0049c-1.7955-0.0198-1.6748-0.7932-1.9761-1.1768l-0.0283,0.0049   l-3.3589-5.8154l1.0903-0.1787l6.2075,4.7319c0.188-0.0561,8.091-2.6988,16.7217-4.6025l1.7827-0.3931L62.245,3.367l2.0708-0.3394   l7.7383,4.0938l0.3267-0.0503c4.7793-0.7305,8.6919-1.1006,11.6294-1.1006c5.4458,0,5.9248,1.2373,5.9653,1.4854   c0.4863,2.9777-15.4175,5.7532-15.5176,5.7886l-6.9214,9.9692l-2.2715,0.3726l3.1436-9.3765L66.847,14.388z"/><rect x="63.6064" y="9.8796" transform="matrix(-0.1616 -0.9869 0.9869 -0.1616 64.3036 76.4047)" width="1.9999" height="2.0168"/><rect x="67.6375" y="9.2259" transform="matrix(0.9868 -0.1617 0.1617 0.9868 -0.7501 11.2366)" width="2.0168" height="1.9999"/><rect x="71.6856" y="8.5553" transform="matrix(0.1621 0.9868 -0.9868 0.1621 70.3402 -63.7111)" width="2.0001" height="2.0164"/><rect x="75.7255" y="7.8928" transform="matrix(0.1616 0.9869 -0.9869 0.1616 73.1087 -68.2542)" width="1.9999" height="2.0168"/><rect x="79.7587" y="33.6644" width="2.707" height="2"/><path d="M92.8944,30.2766c-1.1909-0.646-2.5635-0.7778-3.8159-0.4082c-0.9307-3.4116-4.0264-5.8452-7.6802-5.8452   c-3.5527,0-6.6587,2.3872-7.6387,5.7085c-1.2471-0.2036-2.5322,0.064-3.5981,0.7773c-1.3892,0.9292-2.2188,2.4829-2.2188,4.1553v1   h9.5049v-2h-7.3389c0.2095-0.6016,0.6094-1.1211,1.165-1.4932c0.8491-0.5688,1.8892-0.667,2.853-0.269l1.189,0.4907l0.1826-1.2729   c0.417-2.9058,2.9531-5.0967,5.8999-5.0967c3.082,0,5.6338,2.312,5.936,5.3784l0.1611,1.6362l1.3789-0.896   c0.9297-0.6045,2.0762-0.644,3.0659-0.1074c0.6724,0.3652,1.1592,0.9429,1.3979,1.6299h-8.8726v2h11.0391v-1   C95.5047,32.804,94.5287,31.1639,92.8944,30.2766z"/><path d="M22.7865,18.0262h12.1377v-1c0-4.1968-4.1289-6.858-7.8252-5.6001c-1.0386-4.2129-4.8091-7.2422-9.2739-7.2422   c-4.7207,0-8.7842,3.5132-9.4521,8.1724l1.9795,0.2842c0.5278-3.6807,3.7402-6.4565,7.4727-6.4565   c3.9038,0,7.1362,2.9287,7.519,6.8125l0.1611,1.6367l1.3789-0.8965c2.3076-1.5003,5.2828-0.1642,5.9146,2.2895H22.7865V18.0262z"/><path d="M78.0101,50.4554c4.2173,0,4.6621,4.4688,4.6787,4.6558h1.9932c0.0156-0.1899,0.4302-4.6558,4.6792-4.6558v-2   c-2.9468,0-4.7065,1.5635-5.6758,3.2944c-0.9688-1.731-2.7285-3.2944-5.6753-3.2944V50.4554z"/><path d="M40.7089,30.2298c0.0122-0.147,0.3325-3.6045,3.6089-3.6045v-2c-2.3203,0-3.7637,1.1519-4.6055,2.4917   c-0.8418-1.3398-2.2856-2.4917-4.606-2.4917v2c3.1909,0,3.5762,3.2393,3.6094,3.6045H40.7089z"/><path d="M53.4261,37.7112c0.0122-0.147,0.333-3.605,3.6094-3.605v-2c-2.3203,0-3.7642,1.1519-4.606,2.4917   c-0.8418-1.3398-2.2852-2.4917-4.6055-2.4917v2c3.1909,0,3.5757,3.2397,3.6089,3.605H53.4261z"/></g></svg>