<svg xmlns="http://www.w3.org/2000/svg" viewBox="0 0 64 80" x="0px" y="0px"><title>dog-laika-sputnik-space-astronaut</title><g><path d="M56,12a4,4,0,0,0,3.773-2.673A5.994,5.994,0,0,1,53.256,5.1,4,4,0,0,0,56,12Z"/><rect x="58" y="18" width="2" height="2"/><rect x="56" y="20" width="2" height="2"/><rect x="60" y="20" width="2" height="2"/><rect x="58" y="22" width="2" height="2"/><rect x="52" y="26" width="2" height="2"/><rect x="50" y="28" width="2" height="2"/><rect x="54" y="28" width="2" height="2"/><rect x="52" y="30" width="2" height="2"/><rect x="10" y="3" width="2" height="2"/><rect x="8" y="5" width="2" height="2"/><rect x="12" y="5" width="2" height="2"/><rect x="10" y="7" width="2" height="2"/><rect x="8" y="15" width="2" height="2"/><rect x="5" y="18" width="2" height="2"/><rect x="11" y="18" width="2" height="2"/><rect x="8" y="21" width="2" height="2"/><path d="M21.154,58h-4a1,1,0,0,1-.928-1.372l1.257-3.143a3.455,3.455,0,0,0-2.2-4.588,3.5,3.5,0,0,0-1.008-.151,3.429,3.429,0,0,0-1.708.458l-.667.382a3.461,3.461,0,0,0-1.741,3V59a1,1,0,0,0,1,1h11V59A1,1,0,0,0,21.154,58Z"/><path d="M16.711,39l-.611.509A15.432,15.432,0,0,0,14.553,41H23.9l.164-.22L24,40.515A4.485,4.485,0,0,1,23.9,39Z"/><path d="M34.457,22h2.457l5.106-2.553-.654-3.27-4.019.8a1,1,0,0,1-.8-.18L33,14.137l-4.479,1.792a1,1,0,0,1-.613.041l-3.356-.839L22.783,17.49l4.684,1.562a1,1,0,0,1,.678,1.058l-.923,8.306L30.391,30H36.15V24h-2a1,1,0,0,1-.554-.168l-3-2,1.109-1.664Zm-3.3-4.5a1.5,1.5,0,1,1,1.5,1.5A1.5,1.5,0,0,1,31.155,17.5Z"/><path d="M32.154,34a14.919,14.919,0,0,0,4.375-.655L36.3,32h-6.15a1,1,0,0,1-.447-.105l-3.358-1.679-1.732,1.732A14.889,14.889,0,0,0,32.154,34Z"/><path d="M21.857,34.707,19.108,37h5.483a4.453,4.453,0,0,1,2.362-1.821,16.9,16.9,0,0,1-3.79-1.778Z"/><path d="M48,58H42a1,1,0,0,0-1,1v1h8V59A1,1,0,0,0,48,58Z"/><path d="M47.154,19A15,15,0,1,0,22.933,30.806L25.2,28.541l.872-7.848-5.233-1.745a1,1,0,0,1-.483-1.548l3-4a1,1,0,0,1,1.042-.37l3.686.921,4.7-1.88a1,1,0,0,1,.971.129l3.643,2.732,4.561-.912a.994.994,0,0,1,1.177.784l1,5A1,1,0,0,1,43.6,20.9L38.15,23.618v7.3l.283,1.689A15.007,15.007,0,0,0,47.154,19Zm-15-11a10.947,10.947,0,0,0-6.081,1.833,1,1,0,0,1-1.107-1.666A12.938,12.938,0,0,1,32.154,6a1,1,0,0,1,0,2Zm7.469,1.554a1,1,0,0,1-1.387.279A10.961,10.961,0,0,0,35.68,8.576a1,1,0,1,1,.64-1.894,12.969,12.969,0,0,1,3.024,1.485A1,1,0,0,1,39.623,9.554ZM41,28.109a1,1,0,0,1-.737-1.675,11.007,11.007,0,0,0,1.894-2.851,1,1,0,0,1,1.819.834,13.037,13.037,0,0,1-2.239,3.368A1,1,0,0,1,41,28.109Z"/><path d="M18.562,34.705l.711-.712a3.027,3.027,0,0,0,.887-2.123,2.949,2.949,0,0,0-.2-1.052,17.046,17.046,0,0,1-1.324-1.552,3.019,3.019,0,0,0-3.6.481l-.712.707,2.108,2.115Z"/><path d="M21.354,44.4,22.4,43H13.073l-.306.306a16.538,16.538,0,0,0-2.053,4.669c.064-.041.122-.088.188-.125l.668-.382a5.455,5.455,0,0,1,7.771,6.761L18.632,56h2.522a3,3,0,0,1,2.94,2.4l.8-.912L21.2,45.29A1,1,0,0,1,21.354,44.4Z"/><polygon points="4.415 40.336 4.909 40.833 5.826 41.753 7.162 40.421 5.748 39.007 4.415 40.336"/><path d="M13.977,38.725c.057-.054.117-.1.174-.155.222-.2.44-.41.672-.6l2.277-1.9-2.073-2.081-2.119-2.126L9.666,35.1l2.12,2.126a1,1,0,0,1,0,1.414L7.24,43.168l1.412,1.418L11.2,42.041A18.112,18.112,0,0,1,13.977,38.725Z"/><path d="M33.186,46.073l.014.077L35.97,60h1.859L35.315,44.113A3.158,3.158,0,0,0,33.186,46.073Z"/><rect x="7.647" y="36.761" width="1.535" height="2" transform="translate(-24.208 16.965) rotate(-44.921)"/><path d="M26.354,45.4l2-2.667a.985.985,0,0,1,.187-.189L29.9,41.487a2.483,2.483,0,0,0,.926-2.373v0l-.015-.095a2.488,2.488,0,1,0-4.868,1.015l.183.728a1,1,0,0,1-.171.842l-2.7,3.595L27.742,60h1.969L26.186,46.248A1,1,0,0,1,26.354,45.4Z"/><path d="M36.892,37.624a2.955,2.955,0,0,0,.113-1.436l-.145-.865A16.929,16.929,0,0,1,32.154,36c-.338,0-.667-.031-1-.051a4.476,4.476,0,0,1,1.629,2.74s.014.082.016.1a4.481,4.481,0,0,1-1.671,4.279l-1.254.975-1.632,2.176,1.214,4.735a15.626,15.626,0,0,0,.724-2.192L31.2,45.684c0-.007.007-.012.009-.018l.047-.139a5.148,5.148,0,0,1,4.153-3.468Z"/><polygon points="44 36 44 54 43.781 54 43.281 56 46.719 56 46.219 54 46 54 46 46 60 46 60 44 46 44 46 42 60 42 60 40 46 40 46 38 60 38 60 36 46 36 44 36"/></g></svg>