<svg xmlns="http://www.w3.org/2000/svg" viewBox="0 0 512 640" x="0px" y="0px"><title>Yellowstone</title><g><path d="M457.6,404.1h-35a6.63,6.63,0,0,0-1,.07,7.59,7.59,0,0,0-1.07-.08H362.39A66.9,66.9,0,0,1,304.76,371a7,7,0,0,0-6.05-3.48H222.09A7,7,0,0,0,216,371a66.89,66.89,0,0,1-57.63,33.14H66.17a7,7,0,0,0-7,7v43.22a7,7,0,0,0,7,7H457.6a7,7,0,0,0,7-7V411.1A7,7,0,0,0,457.6,404.1Z"/><path d="M261.13,303.75a7,7,0,0,0-7.24,6.74l-1.59,44.36A7,7,0,0,0,259,362.1h.26a7,7,0,0,0,7-6.75L267.88,311A7,7,0,0,0,261.13,303.75Z"/><path d="M269.57,263.79a7,7,0,0,0-14-.51l-.8,22.35a7,7,0,0,0,6.74,7.25h.26a7,7,0,0,0,7-6.75Z"/><path d="M139.64,289.35,126.17,298a7,7,0,1,0,7.56,11.78L203.45,265l22.41,91.72a7,7,0,0,0,6.8,5.34,6.73,6.73,0,0,0,1.66-.2,7,7,0,0,0,5.14-8.46L202.79,203.33A7,7,0,0,0,196,198a28.57,28.57,0,1,1,18.76-50.12A7,7,0,0,0,224,137.32a42.58,42.58,0,0,0-28-10.47h-.09a27.29,27.29,0,0,1,53.67,7,7,7,0,0,0,10.51,6.05,20,20,0,0,1-3.51,39.61,7,7,0,0,0,0,14,34,34,0,0,0,6.27-67.35,41,41,0,0,0-7-16.3,31.75,31.75,0,1,1,57.51,26.92,7,7,0,0,0,3,9.2l.16.09a.31.31,0,0,0,.1.05l.09,0a6.9,6.9,0,0,0,3.07.72,31.89,31.89,0,0,1,19.34,57.25,31.55,31.55,0,0,1-14.71,6.18l2.17-8.92a7,7,0,0,0-13.6-3.32L275.12,353.44a7,7,0,0,0,5.14,8.46,6.87,6.87,0,0,0,1.67.2,7,7,0,0,0,6.79-5.34l18.41-75.56,58.44,50.89a7,7,0,1,0,9.19-10.55L348.7,298.83l58.85-45.2,45.3,41.87a7,7,0,1,0,9.5-10.28l-49.63-45.88a7,7,0,0,0-9-.41l-65.78,50.52-26.43-23a7.37,7.37,0,0,0-.65-.49l10.07-41.3a45.88,45.88,0,0,0,44.75-45.87,46,46,0,0,0-36.48-44.92A45.24,45.24,0,0,0,330.5,123a45.8,45.8,0,0,0-45.75-45.75,46.27,46.27,0,0,0-9,.89,39.42,39.42,0,0,0-74.38,18.2c0,.64,0,1.28.06,1.91a41.36,41.36,0,0,0-20.2,31.27,42.57,42.57,0,0,0,9.19,82.13l9.53,39-48,30.78-49.77-42a7,7,0,0,0-8.2-.59L50.71,265.77a7,7,0,0,0,7.38,11.89l39-24.2ZM240.77,70.91A25.3,25.3,0,0,1,262.43,83a45.61,45.61,0,0,0-17,16.63,41.25,41.25,0,0,0-29.82-6.53A25.43,25.43,0,0,1,240.77,70.91Z"/></g></svg>